<svg width="199" height="34" viewBox="0 0 199 34" xmlns="http://www.w3.org/2000/svg"><title>Group 7</title><g fill="#000" fill-rule="evenodd"><path d="M34.037 25.994c0-1.91-1.55-3.737-4.43-3.737h-5.143v11.619h3.192V29.55h1.075l2.299 4.325h3.7l-2.808-4.847c1.021-.457 2.115-1.452 2.115-3.035M29.46 27.17h-1.804v-2.35h1.804c.876 0 1.387.572 1.387 1.175 0 .603-.51 1.175-1.387 1.175M50.751 24.705c1.057 0 1.458.587 1.66 1.24h3.245c-.475-2.56-2.461-3.785-4.923-3.785-1.513 0-2.662.457-3.61 1.304-1.368 1.225-1.313 2.855-1.313 4.603 0 1.745-.055 3.377 1.313 4.6.948.85 2.097 1.306 3.61 1.306 2.462 0 4.448-1.224 4.923-3.786H52.41c-.2.653-.602 1.241-1.659 1.241-.584 0-1.02-.213-1.257-.49-.292-.343-.493-.75-.493-2.871s.2-2.53.493-2.872c.236-.278.673-.49 1.257-.49M74.008 22.257v4.473h-3.393v-4.473h-3.19v11.617h3.19v-4.6h3.393v4.6h3.19V22.257zM89.798 33.875h3.192V22.258h-3.192zM104.734 22.257v2.545h3.19v9.072h3.191v-9.072h3.19v-2.545zM126.07 22.257v11.617h8.827V31.33h-5.634v-2.04h4.813v-2.544h-4.813v-1.944h5.634v-2.545zM151.533 24.705c1.057 0 1.458.587 1.659 1.24h3.246c-.475-2.56-2.461-3.785-4.923-3.785-1.514 0-2.662.457-3.61 1.304-1.368 1.225-1.313 2.855-1.313 4.603 0 1.745-.055 3.377 1.313 4.6.948.85 2.096 1.306 3.61 1.306 2.462 0 4.448-1.224 4.923-3.786h-3.246c-.2.653-.602 1.241-1.659 1.241-.584 0-1.021-.213-1.258-.49-.292-.343-.492-.75-.492-2.871s.2-2.53.492-2.872c.237-.278.674-.49 1.258-.49M167.65 22.257v2.545h3.192v9.072h3.19v-9.072h3.191v-2.545zM49.08 0l-4.637 11.617h3.19l3.1-7.764 3.099 7.764h3.192L52.387 0zM29.103 0l-4.637 11.617h3.19L32.296 0zM7.83 22.257H4.637L0 33.874h3.19l3.101-7.764 3.101 7.764h3.19L7.943 22.257zM9.392 0L6.29 7.765 3.19 0H0l4.637 11.617H7.945L12.582 0zM197.856 27.773c-.547-.49-1.385-.817-2.553-.962l-1.003-.127-.565-.07c-.456-.05-.729-.195-.893-.343a.723.723 0 0 1-.255-.539c0-.505.455-1.077 1.568-1.077.24 0 .574-.005.94.041.493.063 1.05.223 1.521.646l2.006-1.795c-.72-.645-1.567-1.034-2.578-1.23a9.548 9.548 0 0 0-1.798-.158c-2.954 0-4.742 1.55-4.742 3.671 0 .995.292 1.779.894 2.334.584.538 1.458.88 2.608 1.028l.28.034 1.288.163c.42.049.693.162.856.31.183.178.256.407.256.684 0 .67-.602 1.044-1.86 1.044-.446 0-.918-.042-1.366-.134-.595-.123-1.148-.338-1.533-.682l-2.043 1.828c.757.696 1.622 1.093 2.596 1.31.714.16 1.487.224 2.327.224 2.736 0 5.016-1.289 5.016-3.655 0-1.077-.274-1.942-.967-2.545"/></g></svg>