<?xml version="1.0" encoding="UTF-8"?>
<svg width="199px" height="34px" viewBox="0 0 199 34" version="1.1" xmlns="http://www.w3.org/2000/svg" xmlns:xlink="http://www.w3.org/1999/xlink">
    <!-- Generator: Sketch 44.1 (41455) - http://www.bohemiancoding.com/sketch -->
    <title>Group 7</title>
    <desc>Created with Sketch.</desc>
    <defs></defs>
    <g id="Symbols" stroke="none" stroke-width="1" fill="none" fill-rule="evenodd">
        <g id="Header" transform="translate(-135.000000, -45.000000)" fill="#000000">
            <g id="Group">
                <g id="Group-7" transform="translate(135.000000, 45.000000)">
                    <path d="M34.0374739,25.9941506 C34.0374739,24.0847803 32.4878693,22.2573572 29.6072358,22.2573572 L24.4641795,22.2573572 L24.4641795,33.8758344 L27.6563651,33.8758344 L27.6563651,29.55066 L28.7313014,29.55066 L31.0296097,33.8758344 L34.7307181,33.8758344 L31.9218558,29.0294757 C32.9429637,28.5722102 34.0374739,27.5773709 34.0374739,25.9941506 M29.4604311,27.1692737 L27.6563651,27.1692737 L27.6563651,24.8190274 L29.4604311,24.8190274 C30.3363656,24.8190274 30.8469195,25.391019 30.8469195,25.9941506 C30.8469195,26.5972821 30.3363656,27.1692737 29.4604311,27.1692737" id="Fill-1"></path>
                    <path d="M50.7511834,24.7051207 C51.8081769,24.7051207 52.209443,25.2918629 52.410076,25.9458017 L55.65609,25.9458017 C55.1814216,23.3841315 53.1946653,22.15984 50.7332407,22.15984 C49.2195216,22.15984 48.071183,22.6171055 47.1234774,23.4644398 C45.7549318,24.6887313 45.8103914,26.319481 45.8103914,28.0665958 C45.8103914,29.8120716 45.7549318,31.4444603 47.1234774,32.6671129 C48.071183,33.5160861 49.2195216,33.9733516 50.7332407,33.9733516 C53.1946653,33.9733516 55.1814216,32.7490601 55.65609,30.1873899 L52.410076,30.1873899 C52.209443,30.8396898 51.8081769,31.4280709 50.7511834,31.4280709 C50.1672272,31.4280709 49.7300755,31.2150081 49.4935569,30.9380265 C49.2015788,30.5954871 49.0009458,30.1873899 49.0009458,28.0665958 C49.0009458,25.9458017 49.2015788,25.5377045 49.4935569,25.1951651 C49.7300755,24.9165446 50.1672272,24.7051207 50.7511834,24.7051207" id="Fill-3"></path>
                    <polygon id="Fill-6" points="74.00765 22.2570294 74.00765 26.7297088 70.6148314 26.7297088 70.6148314 22.2570294 67.424277 22.2570294 67.424277 33.8738676 70.6148314 33.8738676 70.6148314 29.2733506 74.00765 29.2733506 74.00765 33.8738676 77.1982044 33.8738676 77.1982044 22.2570294"></polygon>
                    <polygon id="Fill-7" points="89.7976321 33.8750149 92.9898176 33.8750149 92.9898176 22.2581767 89.7976321 22.2581767"></polygon>
                    <polygon id="Fill-8" points="104.733863 22.2570294 104.733863 24.8023102 107.924418 24.8023102 107.924418 33.8738676 111.114972 33.8738676 111.114972 24.8023102 114.305527 24.8023102 114.305527 22.2570294"></polygon>
                    <polygon id="Fill-9" points="126.070451 22.2570294 126.070451 33.8738676 134.896673 33.8738676 134.896673 31.3302259 129.262637 31.3302259 129.262637 29.28974 134.076198 29.28974 134.076198 26.7460983 129.262637 26.7460983 129.262637 24.8023102 134.896673 24.8023102 134.896673 22.2570294"></polygon>
                    <path d="M151.533066,24.7051207 C152.590059,24.7051207 152.991325,25.2918629 153.191958,25.9458017 L156.437972,25.9458017 C155.963304,23.3841315 153.976548,22.15984 151.515123,22.15984 C150.001404,22.15984 148.853065,22.6171055 147.90536,23.4644398 C146.536814,24.6887313 146.592274,26.319481 146.592274,28.0665958 C146.592274,29.8120716 146.536814,31.4444603 147.90536,32.6671129 C148.853065,33.5160861 150.001404,33.9733516 151.515123,33.9733516 C153.976548,33.9733516 155.963304,32.7490601 156.437972,30.1873899 L153.191958,30.1873899 C152.991325,30.8396898 152.590059,31.4280709 151.533066,31.4280709 C150.949109,31.4280709 150.511958,31.2150081 150.275439,30.9380265 C149.983461,30.5954871 149.782828,30.1873899 149.782828,28.0665958 C149.782828,25.9458017 149.983461,25.5377045 150.275439,25.1951651 C150.511958,24.9165446 150.949109,24.7051207 151.533066,24.7051207" id="Fill-10"></path>
                    <polygon id="Fill-12" points="167.649933 22.2570294 167.649933 24.8023102 170.842118 24.8023102 170.842118 33.8738676 174.032673 33.8738676 174.032673 24.8023102 177.223227 24.8023102 177.223227 22.2570294"></polygon>
                    <polygon id="Fill-13" points="49.0802203 0 44.4428245 11.6168382 47.6333789 11.6168382 50.7325882 3.85315839 53.8317975 11.6168382 57.0239831 11.6168382 52.3865873 0"></polygon>
                    <polygon id="Fill-14" points="29.1030434 0 24.4656476 11.6168382 27.656202 11.6168382 32.2952289 0"></polygon>
                    <polygon id="Fill-15" points="7.82958139 22.2570294 4.75483953 22.2570294 4.63739581 22.2570294 0 33.8738676 3.19055442 33.8738676 6.29139488 26.1101878 9.39223534 33.8738676 12.5811586 33.8738676 7.94376278 22.2570294"></polygon>
                    <polygon id="Fill-16" points="9.39158288 0 6.29074241 7.76531877 3.18990195 0 0.000978697673 0 4.63837451 11.6168382 4.75418707 11.6168382 7.82892892 11.6168382 7.94474148 11.6168382 12.5821373 0"></polygon>
                    <path d="M197.855805,27.7725692 C197.309366,27.2825248 196.470948,26.9563748 195.303036,26.8105088 L194.29987,26.6843101 L193.735488,26.6138354 C193.278763,26.5646671 193.006358,26.4188011 192.841611,26.2712961 C192.640978,26.0926511 192.58715,25.8795883 192.58715,25.7320833 C192.58715,25.2272884 193.042244,24.6552968 194.154697,24.6552968 C194.394478,24.6552968 194.728866,24.65038 195.094247,24.6962704 C195.588489,24.7585503 196.144716,24.9191669 196.616122,25.3420146 L198.622452,23.5473704 C197.901478,22.9016263 197.054904,22.5131964 196.043583,22.3165231 C195.495513,22.2116307 194.900138,22.1591844 194.246042,22.1591844 C191.292006,22.1591844 189.504252,23.7096259 189.504252,25.83042 C189.504252,26.8252593 189.79623,27.6086747 190.398129,28.1642769 C190.982085,28.7018507 191.856389,29.0443901 193.006358,29.1918951 L193.285287,29.2263129 L194.573906,29.3885684 C194.993115,29.4377367 195.26715,29.5508239 195.430266,29.6983289 C195.612956,29.8769738 195.686359,30.1064261 195.686359,30.3834077 C195.686359,31.052097 195.08446,31.4274153 193.826833,31.4274153 C193.379895,31.4274153 192.908489,31.3848027 192.459919,31.2930218 C191.864544,31.170101 191.31158,30.9553993 190.926626,30.6112209 L188.88441,32.438644 C189.64127,33.1351954 190.505786,33.5318199 191.47959,33.7497995 C192.194039,33.9087772 192.96721,33.972696 193.807259,33.972696 C196.542719,33.972696 198.823085,32.6844857 198.823085,30.3178499 C198.823085,29.2410634 198.549049,28.3757007 197.855805,27.7725692" id="Fill-17"></path>
                </g>
            </g>
        </g>
    </g>
</svg>