<?xml version="1.0" encoding="UTF-8"?>
<svg width="840px" height="171px" viewBox="0 0 840 171" version="1.1" xmlns="http://www.w3.org/2000/svg" xmlns:xlink="http://www.w3.org/1999/xlink">
    <!-- Generator: Sketch 44.1 (41455) - http://www.bohemiancoding.com/sketch -->
    <title>Group</title>
    <desc>Created with Sketch.</desc>
    <defs></defs>
    <g id="Instructions-/-Notes" stroke="none" stroke-width="1" fill="none" fill-rule="evenodd">
        <g id="Group" fill="#000000">
            <polygon id="Fill-13" transform="translate(92.419541, 85.023968) rotate(-540.000000) translate(-92.419541, -85.023968) " points="68.1314031 0 0 170.047935 46.8747888 170.047935 92.407559 56.4027505 137.940329 170.047935 184.839083 170.047935 116.70768 0"></polygon>
            <polygon id="Fill-14" transform="translate(421.515078, 85.023968) rotate(-540.000000) translate(-421.515078, -85.023968) " points="432.131403 4.26325641e-14 364 170.047935 410.874789 170.047935 479.030156 4.26325641e-14"></polygon>
            <polygon id="Fill-16" transform="translate(747.419541, 85.023968) rotate(-540.000000) translate(-747.419541, -85.023968) " points="792.964294 4.26325641e-14 747.407559 113.669176 701.850824 4.26325641e-14 655 4.26325641e-14 723.131403 170.047935 724.832891 170.047935 770.006192 170.047935 771.70768 170.047935 839.839083 4.26325641e-14"></polygon>
        </g>
    </g>
</svg>